<svg width="144" height="45" viewBox="0 0 144 45" fill="none" xmlns="http://www.w3.org/2000/svg">
<rect y="0.5" width="144" height="44" rx="8" fill="#54B46A"/>
<path d="M51.108 20.7898H48.983C48.9223 20.4413 48.8106 20.1326 48.6477 19.8636C48.4848 19.5909 48.2822 19.3598 48.0398 19.1705C47.7973 18.9811 47.5208 18.839 47.2102 18.7443C46.9034 18.6458 46.572 18.5966 46.2159 18.5966C45.5833 18.5966 45.0227 18.7557 44.5341 19.0739C44.0455 19.3883 43.6629 19.8504 43.3864 20.4602C43.1098 21.0663 42.9716 21.8068 42.9716 22.6818C42.9716 23.572 43.1098 24.322 43.3864 24.9318C43.6667 25.5379 44.0492 25.9962 44.5341 26.3068C45.0227 26.6136 45.5814 26.767 46.2102 26.767C46.5587 26.767 46.8845 26.7216 47.1875 26.6307C47.4943 26.536 47.7689 26.3977 48.0114 26.2159C48.2576 26.0341 48.464 25.8106 48.6307 25.5455C48.8011 25.2803 48.9186 24.9773 48.983 24.6364L51.108 24.6477C51.0284 25.2008 50.8561 25.7197 50.5909 26.2045C50.3295 26.6894 49.9867 27.1174 49.5625 27.4886C49.1383 27.8561 48.642 28.1439 48.0739 28.3523C47.5057 28.5568 46.875 28.6591 46.1818 28.6591C45.1591 28.6591 44.2462 28.4223 43.4432 27.9489C42.6402 27.4754 42.0076 26.7917 41.5455 25.8977C41.0833 25.0038 40.8523 23.9318 40.8523 22.6818C40.8523 21.428 41.0852 20.3561 41.5511 19.4659C42.017 18.572 42.6515 17.8883 43.4545 17.4148C44.2576 16.9413 45.1667 16.7045 46.1818 16.7045C46.8295 16.7045 47.4318 16.7955 47.9886 16.9773C48.5455 17.1591 49.0417 17.4261 49.4773 17.7784C49.9129 18.1269 50.2708 18.5549 50.5511 19.0625C50.8352 19.5663 51.0208 20.142 51.108 20.7898ZM55.4588 28.6761C54.9058 28.6761 54.4077 28.5777 53.9645 28.3807C53.5251 28.1799 53.1766 27.8845 52.919 27.4943C52.6652 27.1042 52.5384 26.6231 52.5384 26.0511C52.5384 25.5587 52.6293 25.1515 52.8111 24.8295C52.9929 24.5076 53.241 24.25 53.5554 24.0568C53.8698 23.8636 54.224 23.7178 54.6179 23.6193C55.0156 23.517 55.4266 23.4432 55.8509 23.3977C56.3622 23.3447 56.777 23.2973 57.0952 23.2557C57.4134 23.2102 57.6444 23.142 57.7884 23.0511C57.9361 22.9564 58.0099 22.8106 58.0099 22.6136V22.5795C58.0099 22.1515 57.883 21.8201 57.6293 21.5852C57.3755 21.3504 57.0099 21.233 56.5327 21.233C56.0289 21.233 55.6293 21.3428 55.3338 21.5625C55.0421 21.7822 54.8452 22.0417 54.7429 22.3409L52.8224 22.0682C52.974 21.5379 53.224 21.0947 53.5724 20.7386C53.9209 20.3788 54.3471 20.1098 54.8509 19.9318C55.3546 19.75 55.9115 19.6591 56.5213 19.6591C56.9418 19.6591 57.3603 19.7083 57.777 19.8068C58.1937 19.9053 58.5743 20.0682 58.919 20.2955C59.2637 20.5189 59.5402 20.8239 59.7486 21.2102C59.9607 21.5966 60.0668 22.0795 60.0668 22.6591V28.5H58.0895V27.3011H58.0213C57.8963 27.5436 57.7202 27.7708 57.4929 27.983C57.2694 28.1913 56.9872 28.3598 56.6463 28.4886C56.3092 28.6136 55.9134 28.6761 55.4588 28.6761ZM55.9929 27.1648C56.4058 27.1648 56.7637 27.0833 57.0668 26.9205C57.3698 26.7538 57.6027 26.5341 57.7656 26.2614C57.9323 25.9886 58.0156 25.6913 58.0156 25.3693V24.3409C57.9512 24.3939 57.8414 24.4432 57.6861 24.4886C57.5346 24.5341 57.3641 24.5739 57.1747 24.608C56.9853 24.642 56.7978 24.6723 56.6122 24.6989C56.4266 24.7254 56.2656 24.7481 56.1293 24.767C55.8224 24.8087 55.5478 24.8769 55.3054 24.9716C55.063 25.0663 54.8717 25.1989 54.7315 25.3693C54.5914 25.536 54.5213 25.7519 54.5213 26.017C54.5213 26.3958 54.6596 26.6818 54.9361 26.875C55.2126 27.0682 55.5649 27.1648 55.9929 27.1648ZM62.1349 28.5V19.7727H64.1293V21.2273H64.2202C64.3793 20.7235 64.652 20.3352 65.0384 20.0625C65.4285 19.786 65.8736 19.6477 66.3736 19.6477C66.4872 19.6477 66.6141 19.6534 66.7543 19.6648C66.8982 19.6723 67.0175 19.6856 67.1122 19.7045V21.5966C67.0251 21.5663 66.8868 21.5398 66.6974 21.517C66.5118 21.4905 66.3319 21.4773 66.1577 21.4773C65.7827 21.4773 65.4455 21.5587 65.1463 21.7216C64.8509 21.8807 64.6179 22.1023 64.4474 22.3864C64.277 22.6705 64.1918 22.9981 64.1918 23.3693V28.5H62.1349ZM73.3054 19.7727V21.3636H68.2884V19.7727H73.3054ZM69.527 17.6818H71.5838V25.875C71.5838 26.1515 71.6255 26.3636 71.7088 26.5114C71.7959 26.6553 71.9096 26.7538 72.0497 26.8068C72.1899 26.8598 72.3452 26.8864 72.5156 26.8864C72.6444 26.8864 72.7618 26.8769 72.8679 26.858C72.9777 26.839 73.0611 26.822 73.1179 26.8068L73.4645 28.4148C73.3546 28.4527 73.1974 28.4943 72.9929 28.5398C72.7921 28.5852 72.5459 28.6117 72.2543 28.6193C71.7391 28.6345 71.2751 28.5568 70.8622 28.3864C70.4493 28.2121 70.1217 27.9432 69.8793 27.5795C69.6406 27.2159 69.5232 26.7614 69.527 26.2159V17.6818Z" fill="white"/>
<path d="M86 14.1606C85.5398 14.1606 85.1667 14.5337 85.1667 14.9939C85.1667 15.4541 85.5398 15.8272 86 15.8272V14.1606ZM87.9105 14.9939L88.7148 14.7761C88.6165 14.4128 88.2868 14.1606 87.9105 14.1606V14.9939ZM91.015 26.4566L90.2106 26.6744C90.3192 27.0753 90.7063 27.335 91.1183 27.2835L91.015 26.4566ZM100.567 25.2626L100.671 26.0895C101.024 26.0452 101.311 25.7807 101.383 25.4314L100.567 25.2626ZM102 18.3372L102.816 18.506C102.867 18.2606 102.804 18.0053 102.646 17.811C102.488 17.6166 102.251 17.5038 102 17.5038V18.3372ZM88.816 18.3372L88.0116 18.555L88.816 18.3372ZM86 15.8272H87.9105V14.1606H86V15.8272ZM91.1183 27.2835L100.671 26.0895L100.464 24.4357L90.9116 25.6297L91.1183 27.2835ZM101.383 25.4314L102.816 18.506L101.184 18.1683L99.7511 25.0937L101.383 25.4314ZM87.1061 15.2117L88.0116 18.555L89.6203 18.1193L88.7148 14.7761L87.1061 15.2117ZM88.0116 18.555L90.2106 26.6744L91.8193 26.2387L89.6203 18.1193L88.0116 18.555ZM102 17.5038H88.816V19.1705H102V17.5038ZM93.1667 29.5833C93.1667 29.8134 92.9802 30 92.75 30V31.6666C93.9006 31.6666 94.8334 30.7339 94.8334 29.5833H93.1667ZM92.75 30C92.5199 30 92.3334 29.8134 92.3334 29.5833H90.6667C90.6667 30.7339 91.5994 31.6666 92.75 31.6666V30ZM92.3334 29.5833C92.3334 29.3532 92.5199 29.1666 92.75 29.1666V27.5C91.5994 27.5 90.6667 28.4327 90.6667 29.5833H92.3334ZM92.75 29.1666C92.9802 29.1666 93.1667 29.3532 93.1667 29.5833H94.8334C94.8334 28.4327 93.9006 27.5 92.75 27.5V29.1666ZM99.8334 29.5833C99.8334 29.8134 99.6468 30 99.4167 30V31.6666C100.567 31.6666 101.5 30.7339 101.5 29.5833H99.8334ZM99.4167 30C99.1866 30 99 29.8134 99 29.5833H97.3334C97.3334 30.7339 98.2661 31.6666 99.4167 31.6666V30ZM99 29.5833C99 29.3532 99.1866 29.1666 99.4167 29.1666V27.5C98.2661 27.5 97.3334 28.4327 97.3334 29.5833H99ZM99.4167 29.1666C99.6468 29.1666 99.8334 29.3532 99.8334 29.5833H101.5C101.5 28.4327 100.567 27.5 99.4167 27.5V29.1666Z" fill="white"/>
</svg>
